<svg id="Layer_1" data-name="Layer 1" xmlns="http://www.w3.org/2000/svg" viewBox="0 0 194.53 243.06"><defs><style>.cls-1{fill:#fff;}</style></defs><title>palm</title><path class="cls-1" d="M77.3,129.1c8.1.4,16.1,1.2,23.7,4.8a6.41,6.41,0,0,1,3.4,8.3c-1,3.1-3.9,4.4-7.2,3.4-.7-.2-1.4-.6-2-.8C79,140,63.3,140.7,48.4,150c-1.6,1-3,2.3-4.5,3.4-3.2,2.5-6.3,2.3-8.3-.6s-1.6-6.5,1.5-9.3a51.91,51.91,0,0,1,25.8-12.7C67.7,129.9,72.5,129.6,77.3,129.1Z" transform="translate(-0.4 0.19)"/><path class="cls-1" d="M77.3,129.4c-4.8.5-9.6.8-14.3,1.7a52.75,52.75,0,0,0-25.8,12.7c-3.1,2.8-3.6,6.3-1.5,9.3s5.1,3.1,8.3.6a35.43,35.43,0,0,1,4.5-3.4c14.9-9.3,30.6-10,46.8-5.2.7.2,1.4.6,2,.8a5.35,5.35,0,0,0,7.2-3.4,6.53,6.53,0,0,0-3.4-8.3C93.4,130.7,85.4,129.8,77.3,129.4Z" transform="translate(-0.4 0.19)"/><path class="cls-1" d="M122.2,136a5.07,5.07,0,0,0,5.6,5.1c3.1-.1,5-2.1,5.3-5.5s.1-6.8.1-10.2a3.35,3.35,0,0,0,0-1c.3-2.4,0-8.3,0-10.3.1-24.1.3-48.2-.1-72.2-.3-15.5-9.9-24.3-23.6-22.5-2.1.3-4.2.9-6.6,1.4C101.1,9.2,95.9,1.2,85.1,0,74.9-1.2,67,3.1,62.6,14.3c-1-.3-1.8-.5-2.6-.8C43.6,7.7,31,18.2,30.9,37.7v7.7c-5.1,0-9.6-.5-14.1.1C7,46.9.6,56.7.5,69.4c-.1,26-.2,52,.1,78a176.05,176.05,0,0,0,2.1,27.2c3.8,22.2,13.1,40.9,30.2,53.5,20.8,15.3,43.9,17.2,67.6,12.5,13.3-2.6,25.3-9.3,36.3-18.3,22.8-18.7,39.1-44,54.8-69.8,7.6-12.5,1.5-29.5-11.2-35.5a5.94,5.94,0,0,1-.8-.4,27.71,27.71,0,0,0-6-1.4,11.48,11.48,0,0,0-1.9-.1c-6,.1-11.1,3-16,6.3-7.5,4.9-13.3,11.9-18.1,20.1-3.3,5.6-8.1,7-13.6,4.7-3.7-1.5-6.5-.4-7.9,3.1-1.2,3.2-.1,7,3.3,8.3a27,27,0,0,0,10.8,2.1c7.7-.5,13.3-5.4,17.6-12.6,5.6-9.2,12.5-16.7,22.5-19.1,6.9-1.7,14.1,5.5,13.2,13.2a19.58,19.58,0,0,1-2.8,7.4c-2.2,3.9-4.8,7.5-7.3,11.1-11.7,17.1-23.1,34.5-38.3,48.1-10,8.9-20.8,16.1-33.4,19.5a80,80,0,0,1-35.1,1.5c-20.1-3.4-36.3-13.9-46.1-34.8-6-12.7-8.6-26.5-8.6-40.9-.1-27.3,0-54.7,0-82a26.88,26.88,0,0,1,.3-4.9c.8-5.4,3.7-8.4,8.5-8.7,6.6-.5,10.2,3.3,10.2,11.3.1,16.6,0,33.2,0,49.8v3.3c.2,4.1,2.3,6.7,5.4,6.8,3.3.1,5.6-2.4,5.8-6.8.1-1.2,0-2.4,0-3.7V38.6a41.55,41.55,0,0,1,.3-6.1c.7-4.1,2.9-6.7,6.6-7.7,7.3-1.9,12,2.3,12.1,10.9.1,24.1,0,48.2,0,72.2,0,6,2,9.1,5.6,9.1s5.6-3.1,5.6-9.1V26.6a41.55,41.55,0,0,1,.3-6.1c.8-5.5,4.1-8.3,9.6-8.3,5.1,0,8.3,2.9,9,8.5a46.08,46.08,0,0,1,.2,5.3v79.6a28.08,28.08,0,0,0,.1,4.1c.5,3.4,2.9,5.8,5.7,5.6,3-.2,4.9-2.2,5.3-5.6a27.73,27.73,0,0,0,.1-4.1v-62c0-7,2.2-10.6,6.9-11.8,7.4-1.9,12.1,2.1,12.1,10.8" transform="translate(-0.4 0.19)"/></svg>