<svg id="Layer_1" data-name="Layer 1" xmlns="http://www.w3.org/2000/svg" viewBox="0 0 227.08 300.81"><defs><style>.cls-1{fill:#3c92ca;}.cls-2{fill:#fff;}</style></defs><title>thumbsUp</title><path id="_Path_" data-name="&lt;Path&gt;" class="cls-1" d="M50.81,292.2H7.64a2.44,2.44,0,0,1-2.4-2.4v-113a2.44,2.44,0,0,1,2.4-2.4h43.1a2.44,2.44,0,0,1,2.4,2.4v113A2.35,2.35,0,0,1,50.81,292.2Z" transform="translate(0.29 -0.5)"/><path class="cls-2" d="M125.7,54.73V6.09a5.6,5.6,0,0,0-11.19,0V54.73a5.6,5.6,0,1,0,11.19,0Z" transform="translate(0.29 -0.5)"/><path class="cls-2" d="M221.19,109.82H172.55a5.6,5.6,0,0,0,0,11.19h48.64a5.6,5.6,0,1,0,0-11.19Z" transform="translate(0.29 -0.5)"/><path class="cls-2" d="M13.48,115.36a5.62,5.62,0,0,0,5.6,5.6H67.72a5.6,5.6,0,1,0,0-11.19H19.08A5.66,5.66,0,0,0,13.48,115.36Z" transform="translate(0.29 -0.5)"/><path class="cls-2" d="M43.74,37.94a5.5,5.5,0,0,0,0-7.87,5.64,5.64,0,0,0-7.87,0A5.6,5.6,0,0,0,39.8,39.6,5.69,5.69,0,0,0,43.74,37.94Z" transform="translate(0.29 -0.5)"/><path class="cls-2" d="M66.61,60.88a5.57,5.57,0,1,0-7.87,0,5.55,5.55,0,0,0,3.94,1.66A5.69,5.69,0,0,0,66.61,60.88Z" transform="translate(0.29 -0.5)"/><path class="cls-2" d="M55.17,49.44a5.57,5.57,0,1,0-7.87,0,5.55,5.55,0,0,0,3.93,1.66A6.11,6.11,0,0,0,55.17,49.44Z" transform="translate(0.29 -0.5)"/><path class="cls-2" d="M78.11,72.32a5.53,5.53,0,0,0-3.93-9.47,5.8,5.8,0,0,0-3.94,1.6A5.6,5.6,0,0,0,74.17,74,5.69,5.69,0,0,0,78.11,72.32Z" transform="translate(0.29 -0.5)"/><path class="cls-2" d="M199.24,41.45a5.5,5.5,0,1,0-3.94,1.66A5.59,5.59,0,0,0,199.24,41.45Z" transform="translate(0.29 -0.5)"/><path class="cls-2" d="M172.37,66a5.55,5.55,0,0,0,3.93-1.66,5.56,5.56,0,1,0-7.87,0A5.54,5.54,0,0,0,172.37,66Z" transform="translate(0.29 -0.5)"/><path class="cls-2" d="M187.74,52.95a5.57,5.57,0,1,0-7.87,0,5.55,5.55,0,0,0,3.94,1.66A5.7,5.7,0,0,0,187.74,52.95Z" transform="translate(0.29 -0.5)"/><path class="cls-2" d="M164.87,75.82A5.42,5.42,0,1,0,161,77.48,5.59,5.59,0,0,0,164.87,75.82Z" transform="translate(0.29 -0.5)"/><path class="cls-2" d="M212.71,270.62l13-82.46a4,4,0,0,0,.06-.86,31.44,31.44,0,0,0-31.42-31.42H145.56V120.77c0-14.82-4.3-25.46-12.85-31.73-13.53-9.9-32.1-4.24-32.9-4a5.54,5.54,0,0,0-3.87,5.29v39.41c0,31.12-36,41.69-37.57,42.12a5.13,5.13,0,0,0-1.9,1,10.38,10.38,0,0,0-8.12-3.94H10.1A10.42,10.42,0,0,0-.29,179.31v108.1A10.42,10.42,0,0,0,10.1,297.8H48.35a10.41,10.41,0,0,0,9-5.17A31.18,31.18,0,0,0,79,301.3h96.41C196.72,301.24,210.31,290.11,212.71,270.62Zm-165.1,16H10.84V180H47.61Zm11.13-16.73V182.63a5.51,5.51,0,0,0,2.65-.06c1.85-.49,45.69-13.22,45.69-52.82V94.82c4.8-.74,13.1-1.17,19.06,3.2,5.53,4.06,8.3,11.68,8.3,22.75v40.77a5.62,5.62,0,0,0,5.6,5.6h54.36A20.25,20.25,0,0,1,214.62,187L201.7,269.08v.18c-1.72,13.9-10.52,20.91-26.26,20.91H79A20.39,20.39,0,0,1,58.74,269.88Z" transform="translate(0.29 -0.5)"/></svg>